<svg xmlns="http://www.w3.org/2000/svg" viewBox="0 0 120 120"><rect width="120" height="120" rx="20" fill="#7a3a12"/><path d="M20 120c4-24 20-34 40-34s36 10 40 34z" fill="#23262e"/><rect x="52" y="74" width="16" height="14" rx="4" fill="#e9bf96"/><ellipse cx="60" cy="56" rx="23" ry="26" fill="#e9bf96"/><path d="M35 52c-2-18 10-30 25-30 16 0 27 10 25 30-3-6-6-9-10-10l-4-8-5 8-6-9-5 9-6-8-4 9c-4 1-7 4-10 9z" fill="#1e1a18"/><path d="M45 57q5-5 10 0M65 57q5-5 10 0" stroke="#1b1b1f" stroke-width="2.6" fill="none" stroke-linecap="round"/><path d="M53 72q7 4 14 0" stroke="#1b1b1f" stroke-width="2.2" fill="none" stroke-linecap="round"/><rect x="30" y="44" width="8" height="18" rx="4" fill="#f2a33a"/><rect x="82" y="44" width="8" height="18" rx="4" fill="#f2a33a"/><path d="M34 46q26-30 52 0" stroke="#f2a33a" stroke-width="4" fill="none"/></svg>